<svg version="1.1" id="Layer_1" xmlns="http://www.w3.org/2000/svg" xmlns:xlink="http://www.w3.org/1999/xlink" x="0px" y="0px" viewBox="0 0 257.2 68.7" style="enable-background:new 0 0 257.2 68.7;" xml:space="preserve">
 <style type="text/css">
  .st0{fill-rule:evenodd;clip-rule:evenodd;fill:#002A8D;}
	.st1{fill-rule:evenodd;clip-rule:evenodd;fill:#FF7800;}
 </style>
 <g>
  <path class="st0" d="M63.7,54.2c0,0-0.5,2.5,1.7,2.7c1.1,0,2.2,0,3.5,0c7.8,0,14.9-3,15-10.4c0.1-6.5-5.4-8.5-12-8.5h-4.7
		L63.7,54.2z M98.9,46.8c0,9.8-7.8,22.7-34.8,21.1c-3.2-0.2-5.1-0.5-8-1.2c-10.2-2.6-6.6-15.3-6.6-15.3L59.9,2.6
		C65.6,1.6,72,1,78.6,1c14.4,0,24,5.4,24,15.6c0,9.5-8.7,14.7-15.3,15.8C92.5,32.9,98.9,37.1,98.9,46.8z M72.5,12.4L69.9,25
		c0,0-0.6,2.7,1.6,2.7h3c7.8,0,13.3-3.2,13.4-8.9c0.1-4.7-3.7-6.7-9.2-6.7C76.3,12,73.6,12.2,72.5,12.4z M165,68.1h-8.6L170,3
		c5.6-1.4,11.5-1.7,18.4-1.6c16.7,0.1,24.4,6.8,24.4,18.5c0,10.8-8,26.6-31.2,26.6c-2.4,0-4.4-0.3-5.9-0.4c0,0-1.9,9.1-3,14.4
		C171.3,67.2,167.2,68.1,165,68.1z M183.6,12.9L179.8,31c0,0-1.2,3.9,3.1,3.9c0.5,0,1.1,0,1.8,0c9.7-0.1,14.7-6.8,14.7-13.8
		c0-6.9-4.5-8.6-9.8-8.6C186.8,12.5,184.8,12.7,183.6,12.9z M122.5,39.3c0,10.3,5.6,16.9,15.2,16.9c4,0,8.3-0.7,14.1-5.3l-2.3,11
		c0,0-0.6,3.6-4.4,5c-3.1,1.2-6.3,1.8-11.3,1.8c-13.7,0-27.1-7.2-27.1-28.5c0-19.9,12-40.2,35.2-40.2c4.5,0,7.8,0.7,11.9,2.1
		c6.3,2.2,7.1,5.8,6.7,8c-0.4,2.2-1.9,7.6-1.9,7.6c-4-3.8-10.9-4.9-14.8-4.9C128.9,12.9,122.5,28.7,122.5,39.3z M24.6,30.8
		c-5.2-6-10.6-9.6-14.7-11.7c0,0-2-1-3-1.6c1.5-3.6,3.5-6.1,3.5-6.1c0.3-0.4,6.2-7.8,11.5-5.2C27.6,8.9,28.2,21.5,24.6,30.8z
		 M237.3,30.8c-5.2-6-10.6-9.6-14.7-11.7c0,0-2-1-3-1.6c1.5-3.6,3.5-6.1,3.5-6.1c0.3-0.4,6.2-7.8,11.5-5.2
		C240.3,8.9,240.9,21.5,237.3,30.8z">
  </path>
  <path class="st1" d="M42.4,40.3c-5.6,9.5-20.8,20.3-25.1,21.9C8.9,66,3.2,59.1,2.7,58.4c-1.6-2.1-1.9-2.6-2.7-4.2
		c-0.1,0.3,16.1-7.8,21.9-18.2c6.3-8.9,6.9-26.5,0-29.8c2.1,1.1,7,4.1,11.4,8.3c4.4,4,8.2,9.2,8.2,9.2C42,24.3,47.5,31.7,42.4,40.3z
		 M254.2,23.7c0.5,0.7,6,8,0.9,16.7c-5.6,9.5-20.8,20.3-25.1,21.9c-8.4,3.7-14.1-3.2-14.6-3.9c-1.6-2.1-1.9-2.6-2.7-4.2
		c-0.1,0.3,16.1-7.8,21.9-18.2c6.3-8.9,6.9-26.5,0-29.8c2.1,1.1,7,4.1,11.4,8.3C250.5,18.5,254.3,23.7,254.2,23.7z">
  </path>
 </g>
</svg>