<?xml version="1.0" encoding="UTF-8"?>
<!DOCTYPE svg PUBLIC "-//W3C//DTD SVG 1.1//EN" "http://www.w3.org/Graphics/SVG/1.1/DTD/svg11.dtd">
<!-- Creator: CorelDRAW X8 -->
<svg xmlns="http://www.w3.org/2000/svg" xml:space="preserve" width="169.333mm" height="169.333mm" version="1.1" style="shape-rendering:geometricPrecision; text-rendering:geometricPrecision; image-rendering:optimizeQuality; fill-rule:evenodd; clip-rule:evenodd"
viewBox="0 0 16933 16933"
 xmlns:xlink="http://www.w3.org/1999/xlink">
 <defs>
  <style type="text/css">
   <![CDATA[
    .fil0 {fill:#5A37B3}
    .fil1 {fill:#32CC96;fill-rule:nonzero}
   ]]>
  </style>
 </defs>
 <g id="Capa_x0020_1">
  <metadata id="CorelCorpID_0Corel-Layer"/>
  <g id="_1378156579136">
   <rect class="fil0" x="4390" y="6415" width="8154" height="4104" rx="796" ry="914"/>
   <path class="fil1" d="M7086 9839l-1297 0 413 -472 884 0c33,0 60,27 60,61l0 351c0,33 -27,60 -60,60zm2570 -1917l0 977 -1169 -1027c-8,-7 -18,-10 -28,-10 -24,0 -43,19 -43,42l0 1875c0,33 27,60 61,60l350 0c34,0 61,-27 61,-60l0 -973 1169 1023c8,7 18,10 28,10l0 0c24,0 43,-19 43,-43l0 -1874c0,-33 -27,-60 -61,-60l-351 0c-33,0 -60,27 -60,60zm-1565 -533c0,163 -132,295 -295,295 -163,0 -295,-132 -295,-295 0,-163 132,-295 295,-295 163,0 295,132 295,295zm3867 0c0,163 -132,295 -295,295 -163,0 -295,-132 -295,-295 0,-163 132,-295 295,-295 163,0 295,132 295,295zm-1417 2390l0 -2624c0,-34 27,-61 61,-61l351 0c33,0 61,27 61,61l0 2624c0,33 -28,60 -61,60l-351 0c-34,0 -61,-27 -61,-60zm886 0l0 -1857c0,-33 27,-60 61,-60l350 0c34,0 61,27 61,60l0 1857c0,33 -27,60 -61,60l-350 0c-34,0 -61,-27 -61,-60zm-4635 -1917l-177 0 -1386 0c-33,0 -60,27 -60,60l0 351c0,34 27,61 60,61l977 0 -1216 1405c-34,39 -6,100 46,100l430 0c17,0 34,-7 46,-21l1606 -1856c35,-39 7,-100 -46,-100l-280 0zm768 1917l0 -1857c0,-33 27,-60 61,-60l350 0c34,0 61,27 61,60l0 1857c0,33 -27,60 -61,60l-350 0c-34,0 -61,-27 -61,-60z"/>
  </g>
 </g>
</svg>
